<?xml version="1.0" encoding="iso-8859-1"?>
<!-- Generator: Adobe Illustrator 16.0.0, SVG Export Plug-In . SVG Version: 6.00 Build 0)  -->
<!DOCTYPE svg PUBLIC "-//W3C//DTD SVG 1.1//EN" "http://www.w3.org/Graphics/SVG/1.1/DTD/svg11.dtd">
<svg version="1.1" id="Capa_1" xmlns="http://www.w3.org/2000/svg" xmlns:xlink="http://www.w3.org/1999/xlink" x="0px" y="0px"
	 width="94.244px" height="94.244px" viewBox="0 0 94.244 94.244" style="enable-background:new 0 0 94.244 94.244;"
	 xml:space="preserve">
<g>
	<g>
		<path d="M47.122,0C21.14,0,0.001,21.139,0.001,47.122c0,25.983,21.139,47.122,47.121,47.122c25.982,0,47.121-21.139,47.121-47.122
			C94.243,21.139,73.104,0,47.122,0z M89.243,47.122c0,1.306-0.066,2.597-0.184,3.873H50.063l-1.525-4.368
			c-0.001-0.004-0.004-0.007-0.005-0.011c-0.007-0.019-0.017-0.036-0.024-0.055c-0.006-0.016-0.009-0.032-0.016-0.048
			c-0.008-0.016-0.018-0.028-0.023-0.043c-0.015-0.027-0.027-0.054-0.043-0.081c-0.009-0.016-0.017-0.034-0.025-0.05
			c-0.002-0.003-0.004-0.007-0.006-0.01L45.7,41.995h43.221C89.125,43.677,89.243,45.386,89.243,47.122z M53.905,61.995h32.617
			c-1.215,3.204-2.805,6.224-4.725,9h-24.75L53.905,61.995z M53.556,60.995l-3.143-9h38.549c-0.361,3.116-1.068,6.128-2.074,9
			H53.556z M46.23,49.622c0,0.757-0.616,1.373-1.373,1.373c-0.51,0-0.951-0.283-1.188-0.697l2.485-1.104
			C46.2,49.329,46.23,49.473,46.23,49.622z M45.077,40.995l-5.599-9h46.944c1.106,2.864,1.912,5.875,2.369,9H45.077z M86.028,30.995
			H38.856l-5.6-9h47.649C82.964,24.755,84.688,27.775,86.028,30.995z M80.124,20.995H32.635l-5.599-9h43.136v-0.102
			C73.958,14.379,77.317,17.456,80.124,20.995z M47.122,5c7.902,0,15.305,2.192,21.63,5.995H26.726v0.5l-0.555-0.892
			C32.347,7.047,39.498,5,47.122,5z M5.001,47.122c0-6.69,1.575-13.017,4.363-18.641l34.355,18.511L8.057,62.846
			C6.093,57.982,5.001,52.68,5.001,47.122z M26.23,59.622c0,0.757-0.616,1.373-1.373,1.373c-0.757,0-1.373-0.616-1.373-1.373
			c0-0.132,0.024-0.257,0.06-0.378l1.914-0.852C25.913,58.617,26.23,59.081,26.23,59.622z M43.595,89.083
			c0.21-0.489,0.697-0.834,1.263-0.834c0.612,0,1.126,0.405,1.303,0.96C45.299,89.189,44.442,89.154,43.595,89.083z M53.847,88.702
			c0.25-0.276,0.609-0.453,1.012-0.453c0.225,0,0.434,0.06,0.621,0.155C54.937,88.514,54.394,88.613,53.847,88.702z M56.698,88.143
			c-0.436-0.541-1.096-0.894-1.842-0.894c-1.047,0-1.928,0.687-2.241,1.63c-1.776,0.232-3.585,0.36-5.423,0.363
			c-0.184-1.127-1.156-1.993-2.335-1.993c-1.082,0-1.987,0.731-2.271,1.724c-2.113-0.228-4.178-0.609-6.186-1.14
			c-0.416-0.358-0.951-0.584-1.543-0.584c-0.128,0-0.25,0.019-0.372,0.038c-11.063-3.49-20.175-11.417-25.212-21.7l13.22-5.876
			c0.048,1.268,1.086,2.284,2.364,2.284c1.309,0,2.373-1.063,2.373-2.373c0-0.666-0.277-1.267-0.72-1.697l16.247-7.222
			c0.395,0.763,1.183,1.292,2.1,1.292c0.839,0,1.572-0.438,1.995-1.099l6.064,17.367c-0.271,0.385-0.433,0.853-0.433,1.357
			c0,1.072,0.719,1.97,1.697,2.263l2.021,5.785c-0.384-0.264-0.847-0.421-1.345-0.421c-1.31,0-2.373,1.064-2.373,2.373
			s1.063,2.373,2.373,2.373c1.07,0,1.969-0.719,2.263-1.696l2.466,7.062C58.638,87.655,57.674,87.915,56.698,88.143z M56.229,79.622
			c0,0.757-0.615,1.373-1.373,1.373c-0.756,0-1.373-0.616-1.373-1.373s0.617-1.373,1.373-1.373
			C55.614,78.249,56.229,78.865,56.229,79.622z M60.89,81.995h9.813c-2.575,1.746-5.353,3.215-8.289,4.362L60.89,81.995z
			 M72.11,80.995H60.54l-3.143-9h23.684C78.56,75.426,75.534,78.464,72.11,80.995z"/>
		<path d="M14.857,67.249c-1.309,0-2.373,1.063-2.373,2.373s1.064,2.373,2.373,2.373s2.373-1.063,2.373-2.373
			S16.166,67.249,14.857,67.249z M14.857,70.995c-0.757,0-1.373-0.616-1.373-1.373s0.616-1.373,1.373-1.373
			c0.757,0,1.373,0.616,1.373,1.373S15.614,70.995,14.857,70.995z"/>
		<path d="M24.857,67.249c-1.309,0-2.373,1.063-2.373,2.373s1.064,2.373,2.373,2.373s2.373-1.063,2.373-2.373
			S26.166,67.249,24.857,67.249z M24.857,70.995c-0.757,0-1.373-0.616-1.373-1.373s0.616-1.373,1.373-1.373
			c0.757,0,1.373,0.616,1.373,1.373S25.614,70.995,24.857,70.995z"/>
		<path d="M34.857,67.249c-1.309,0-2.373,1.063-2.373,2.373s1.064,2.373,2.373,2.373s2.373-1.063,2.373-2.373
			S36.166,67.249,34.857,67.249z M34.857,70.995c-0.757,0-1.373-0.616-1.373-1.373s0.616-1.373,1.373-1.373
			c0.757,0,1.373,0.616,1.373,1.373S35.614,70.995,34.857,70.995z"/>
		<path d="M44.857,67.249c-1.309,0-2.373,1.063-2.373,2.373s1.064,2.373,2.373,2.373s2.373-1.063,2.373-2.373
			S46.166,67.249,44.857,67.249z M44.857,70.995c-0.757,0-1.373-0.616-1.373-1.373s0.616-1.373,1.373-1.373
			c0.757,0,1.373,0.616,1.373,1.373S45.614,70.995,44.857,70.995z"/>
		<path d="M34.857,57.249c-1.309,0-2.373,1.063-2.373,2.373s1.064,2.373,2.373,2.373s2.373-1.063,2.373-2.373
			S36.166,57.249,34.857,57.249z M34.857,60.995c-0.757,0-1.373-0.616-1.373-1.373s0.616-1.373,1.373-1.373
			c0.757,0,1.373,0.616,1.373,1.373S35.614,60.995,34.857,60.995z"/>
		<path d="M44.857,57.249c-1.309,0-2.373,1.063-2.373,2.373s1.064,2.373,2.373,2.373s2.373-1.063,2.373-2.373
			S46.166,57.249,44.857,57.249z M44.857,60.995c-0.757,0-1.373-0.616-1.373-1.373s0.616-1.373,1.373-1.373
			c0.757,0,1.373,0.616,1.373,1.373S45.614,60.995,44.857,60.995z"/>
		<path d="M24.857,77.249c-1.309,0-2.373,1.063-2.373,2.373s1.064,2.373,2.373,2.373s2.373-1.063,2.373-2.373
			S26.166,77.249,24.857,77.249z M24.857,80.995c-0.757,0-1.373-0.616-1.373-1.373s0.616-1.373,1.373-1.373
			c0.757,0,1.373,0.616,1.373,1.373S25.614,80.995,24.857,80.995z"/>
		<path d="M34.857,77.249c-1.309,0-2.373,1.063-2.373,2.373s1.064,2.373,2.373,2.373s2.373-1.063,2.373-2.373
			S36.166,77.249,34.857,77.249z M34.857,80.995c-0.757,0-1.373-0.616-1.373-1.373s0.616-1.373,1.373-1.373
			c0.757,0,1.373,0.616,1.373,1.373S35.614,80.995,34.857,80.995z"/>
		<path d="M44.857,77.249c-1.309,0-2.373,1.063-2.373,2.373s1.064,2.373,2.373,2.373s2.373-1.063,2.373-2.373
			S46.166,77.249,44.857,77.249z M44.857,80.995c-0.757,0-1.373-0.616-1.373-1.373s0.616-1.373,1.373-1.373
			c0.757,0,1.373,0.616,1.373,1.373S45.614,80.995,44.857,80.995z"/>
	</g>
</g>
<g>
</g>
<g>
</g>
<g>
</g>
<g>
</g>
<g>
</g>
<g>
</g>
<g>
</g>
<g>
</g>
<g>
</g>
<g>
</g>
<g>
</g>
<g>
</g>
<g>
</g>
<g>
</g>
<g>
</g>
</svg>
